<?xml version="1.0" encoding="UTF-8"?>
<svg xmlns="http://www.w3.org/2000/svg" xmlns:xlink="http://www.w3.org/1999/xlink" width="75pt" height="93pt" viewBox="0 0 75 93" version="1.1">
<g id="surface1">
<path style=" stroke:none;fill-rule:nonzero;fill:rgb(0%,0%,0%);fill-opacity:1;" d="M 39.929688 0.0234375 C 39.90625 0.0429688 39.527344 0.101562 39.09375 0.144531 C 38.097656 0.238281 37.171875 0.390625 36.359375 0.589844 C 35.753906 0.734375 35.695312 0.734375 35.15625 0.625 C 33.945312 0.386719 33.246094 0.328125 31.566406 0.328125 C 30.285156 0.328125 29.644531 0.363281 29.019531 0.457031 C 26.066406 0.914062 23.695312 1.882812 21.609375 3.472656 C 20.894531 4.019531 19.769531 5.136719 19.296875 5.777344 C 18.933594 6.261719 18.882812 6.304688 18.269531 6.5625 C 16.234375 7.417969 13.941406 9.023438 12.210938 10.796875 C 10.144531 12.917969 8.851562 15.011719 7.957031 17.675781 C 7.679688 18.492188 7.585938 18.671875 7.179688 19.203125 C 5.402344 21.476562 4.269531 24.230469 3.847656 27.320312 C 3.789062 27.71875 3.753906 28.664062 3.753906 29.570312 C 3.753906 31.167969 3.847656 32.121094 4.136719 33.386719 C 4.261719 33.953125 4.261719 33.996094 4.136719 34.613281 C 3.832031 36.109375 3.761719 38.128906 3.957031 39.597656 C 4.449219 43.238281 6.167969 46.886719 8.785156 49.828125 C 9.257812 50.359375 9.347656 50.503906 9.5 51.011719 C 9.882812 52.246094 10.261719 52.988281 11.613281 55.152344 C 12.023438 55.816406 12.363281 56.394531 12.363281 56.445312 C 12.363281 56.496094 11.628906 57.949219 10.734375 59.671875 C 5.511719 69.75 0.0273438 80.773438 0.167969 80.910156 C 0.289062 81.035156 5.332031 81.433594 7.925781 81.519531 C 9.070312 81.5625 10.363281 81.628906 10.800781 81.664062 C 11.246094 81.710938 12.101562 81.773438 12.71875 81.8125 C 13.972656 81.898438 14.34375 81.972656 14.859375 82.226562 C 15.359375 82.472656 15.769531 82.871094 16.335938 83.683594 C 16.613281 84.070312 17.097656 84.667969 17.417969 85.007812 C 17.738281 85.347656 18.234375 85.972656 18.515625 86.386719 C 19.164062 87.347656 19.921875 88.285156 21.839844 90.53125 C 23.476562 92.449219 23.796875 92.78125 24.023438 92.78125 C 24.101562 92.78125 24.3125 92.636719 24.488281 92.453125 C 24.734375 92.195312 25.128906 91.46875 26.359375 88.980469 C 27.214844 87.261719 28.4375 84.695312 29.078125 83.300781 C 30.605469 79.957031 31.355469 78.375 31.839844 77.488281 C 32.371094 76.515625 33.492188 74.277344 34.628906 71.90625 C 35.523438 70.054688 36.816406 67.542969 36.953125 67.390625 C 37 67.34375 37.0625 67.359375 37.128906 67.433594 C 37.273438 67.578125 43.265625 77.96875 45.691406 82.28125 C 47.640625 85.757812 49.785156 89.730469 50.699219 91.574219 C 51.070312 92.324219 51.558594 93 51.726562 93 C 51.769531 93 51.945312 92.882812 52.117188 92.746094 C 52.597656 92.351562 56.359375 86.6875 57.058594 85.296875 C 57.167969 85.082031 57.433594 84.710938 57.644531 84.476562 C 58.105469 83.984375 58.417969 83.527344 59.066406 82.4375 C 59.339844 81.964844 59.710938 81.453125 59.964844 81.195312 C 60.519531 80.632812 60.910156 80.496094 62.5625 80.285156 C 63.210938 80.199219 64.023438 80.074219 64.367188 79.996094 C 64.707031 79.914062 65.609375 79.769531 66.367188 79.667969 C 68.15625 79.421875 70.496094 79.042969 72.367188 78.6875 C 74.535156 78.273438 74.722656 78.234375 74.789062 78.179688 C 74.933594 78.054688 65.835938 62.949219 62.28125 57.421875 C 61.785156 56.648438 61.363281 55.972656 61.339844 55.917969 C 61.320312 55.859375 61.601562 55.320312 61.988281 54.695312 C 63.550781 52.167969 64.183594 50.773438 64.511719 49.1875 C 64.578125 48.847656 64.679688 48.6875 65.175781 48.097656 C 68.359375 44.304688 69.726562 38.996094 68.789062 34.054688 C 68.601562 33.058594 68.601562 33.074219 68.757812 32.011719 C 69.125 29.578125 68.984375 26.570312 68.402344 24.273438 C 67.691406 21.460938 66.496094 19.195312 64.644531 17.132812 C 64.171875 16.601562 64.121094 16.515625 63.84375 15.714844 C 62.148438 10.703125 57.488281 6.320312 52.257812 4.832031 L 51.382812 4.585938 L 50.800781 3.96875 C 48.757812 1.816406 46.199219 0.609375 42.742188 0.175781 C 41.792969 0.0585938 39.988281 -0.0429688 39.929688 0.0234375 Z M 34.730469 12.984375 C 35.601562 13.230469 35.769531 13.324219 35.8125 13.601562 C 35.878906 14.03125 36.242188 24.980469 36.191406 25.058594 C 36.167969 25.089844 35.8125 25.140625 35.40625 25.152344 C 34.503906 25.203125 33.710938 25.445312 32.925781 25.902344 C 32.640625 26.078125 32.359375 26.191406 32.3125 26.164062 C 32.039062 26.019531 25.820312 16.667969 25.820312 16.40625 C 25.820312 16.355469 26.023438 16.109375 26.277344 15.867188 C 27.878906 14.320312 29.617188 13.347656 31.527344 12.933594 C 32.386719 12.742188 33.957031 12.773438 34.730469 12.984375 Z M 40.53125 13.367188 C 41.523438 13.558594 42.5625 13.914062 43.433594 14.34375 C 44.117188 14.683594 45.203125 15.417969 45.332031 15.621094 C 45.382812 15.707031 44.867188 16.777344 43.332031 19.796875 C 41.246094 23.890625 40.191406 25.902344 40.074219 25.972656 C 40.046875 25.996094 39.828125 25.894531 39.59375 25.757812 C 39.363281 25.617188 39.003906 25.4375 38.800781 25.363281 C 38.402344 25.210938 37.5 25.066406 36.984375 25.066406 L 36.671875 25.066406 L 36.628906 24.535156 C 36.605469 24.253906 36.53125 22.261719 36.472656 20.125 C 36.410156 17.988281 36.328125 15.597656 36.292969 14.820312 C 36.25 13.972656 36.25 13.382812 36.292969 13.339844 C 36.527344 13.105469 39.3125 13.121094 40.53125 13.367188 Z M 46.519531 16.085938 C 48.597656 16.796875 50.46875 18.265625 51.800781 20.234375 C 52.460938 21.214844 53.210938 22.769531 53.109375 22.9375 C 53.078125 22.980469 52.375 23.410156 51.542969 23.898438 C 50.117188 24.726562 48.890625 25.488281 44.953125 27.957031 C 44.058594 28.515625 43.296875 28.960938 43.246094 28.945312 C 43.203125 28.933594 43.035156 28.714844 42.875 28.460938 C 42.46875 27.828125 41.441406 26.816406 40.933594 26.554688 C 40.699219 26.433594 40.511719 26.292969 40.511719 26.234375 C 40.511719 26.183594 40.78125 25.648438 41.109375 25.039062 C 41.425781 24.433594 42.597656 22.175781 43.6875 20.015625 C 44.789062 17.859375 45.71875 16.050781 45.761719 16 C 45.863281 15.875 45.9375 15.882812 46.519531 16.085938 Z M 26.621094 18.503906 C 28.488281 21.382812 30.640625 24.617188 31.304688 25.539062 C 31.644531 26.019531 31.929688 26.445312 31.929688 26.496094 C 31.929688 26.546875 31.6875 26.707031 31.40625 26.859375 C 30.699219 27.222656 29.941406 27.980469 29.578125 28.675781 C 29.398438 29.035156 29.257812 29.207031 29.171875 29.207031 C 29.105469 29.207031 26.773438 28.082031 23.992188 26.699219 C 20.160156 24.796875 18.9375 24.15625 18.925781 24.054688 C 18.886719 23.851562 19.375 22.457031 19.746094 21.667969 C 20.675781 19.703125 22.253906 17.988281 23.855469 17.203125 C 24.597656 16.839844 25.246094 16.632812 25.382812 16.710938 C 25.441406 16.746094 26 17.554688 26.621094 18.503906 Z M 53.90625 24.011719 C 54.375 24.660156 55.152344 26.132812 55.441406 26.917969 C 55.695312 27.585938 55.972656 28.664062 56.082031 29.390625 C 56.226562 30.378906 56.191406 32.46875 56.015625 32.746094 C 55.980469 32.796875 54.273438 32.832031 50.257812 32.847656 L 44.546875 32.875 L 44.488281 32.367188 C 44.410156 31.589844 44.175781 30.761719 43.855469 30.09375 C 43.695312 29.761719 43.566406 29.449219 43.566406 29.402344 C 43.574219 29.273438 50.324219 25.066406 52.875 23.597656 C 53.058594 23.488281 53.269531 23.410156 53.347656 23.417969 C 53.433594 23.425781 53.644531 23.648438 53.90625 24.011719 Z M 23.863281 27.101562 C 26.597656 28.460938 28.882812 29.605469 28.933594 29.652344 C 29.003906 29.714844 28.996094 29.773438 28.875 29.957031 C 28.414062 30.644531 28.148438 31.519531 28.132812 32.390625 C 28.125 32.730469 28.089844 33.015625 28.046875 33.050781 C 27.992188 33.09375 26.523438 33.152344 24.765625 33.195312 C 23.003906 33.238281 20.503906 33.3125 19.207031 33.355469 C 16.515625 33.449219 16.734375 33.496094 16.589844 32.78125 C 16.160156 30.582031 16.464844 28.261719 17.449219 26.394531 C 17.882812 25.582031 18.582031 24.628906 18.757812 24.628906 C 18.828125 24.628906 21.128906 25.742188 23.863281 27.101562 Z M 55.988281 33.371094 C 56.03125 33.414062 56.105469 33.921875 56.15625 34.496094 C 56.375 37.105469 55.769531 39.757812 54.527344 41.59375 C 54.054688 42.285156 53.804688 42.578125 53.667969 42.578125 C 53.59375 42.578125 52.167969 41.8125 50.496094 40.875 C 48.824219 39.945312 46.6875 38.761719 45.746094 38.253906 C 44.808594 37.746094 43.996094 37.289062 43.9375 37.230469 C 43.847656 37.148438 43.863281 37.0625 44.058594 36.640625 C 44.386719 35.914062 44.527344 35.3125 44.578125 34.292969 L 44.621094 33.386719 L 46.511719 33.347656 C 47.550781 33.328125 50.089844 33.296875 52.15625 33.292969 C 55.09375 33.277344 55.929688 33.296875 55.988281 33.371094 Z M 28.117188 33.550781 C 28.160156 33.582031 28.21875 33.980469 28.242188 34.511719 C 28.292969 35.542969 28.472656 36.363281 28.808594 37.03125 C 28.925781 37.289062 29.011719 37.519531 28.984375 37.554688 C 28.890625 37.714844 19.46875 43.667969 19.316406 43.667969 C 19.171875 43.667969 18.261719 42.683594 17.882812 42.105469 C 16.851562 40.550781 16.34375 38.792969 16.34375 36.800781 C 16.34375 35.417969 16.597656 33.980469 16.859375 33.902344 C 17.085938 33.835938 20.203125 33.71875 24.074219 33.632812 C 26.175781 33.589844 27.90625 33.539062 27.921875 33.523438 C 27.964844 33.480469 28.03125 33.488281 28.117188 33.550781 Z M 45.632812 38.667969 C 48.285156 40.113281 53.328125 42.925781 53.414062 43.011719 C 53.558594 43.15625 53.121094 44.421875 52.539062 45.585938 C 51.828125 47 50.628906 48.445312 49.390625 49.378906 C 48.628906 49.945312 47.238281 50.65625 46.859375 50.671875 L 46.597656 50.675781 L 45.988281 49.585938 C 44.949219 47.734375 43.085938 44.515625 41.914062 42.5625 C 41.304688 41.539062 40.800781 40.652344 40.800781 40.601562 C 40.800781 40.542969 41.050781 40.324219 41.347656 40.113281 C 42.039062 39.621094 42.941406 38.683594 43.304688 38.085938 C 43.449219 37.839844 43.609375 37.636719 43.660156 37.636719 C 43.703125 37.636719 44.589844 38.101562 45.632812 38.667969 Z M 29.617188 38.304688 C 30.007812 39.109375 30.730469 39.824219 31.695312 40.367188 C 31.945312 40.511719 32.148438 40.664062 32.148438 40.714844 C 32.148438 40.765625 31.726562 41.574219 31.214844 42.511719 C 30.707031 43.449219 29.5 45.695312 28.546875 47.511719 C 27.585938 49.320312 26.757812 50.816406 26.714844 50.835938 C 26.554688 50.902344 25.289062 50.496094 24.539062 50.140625 C 22.175781 49.015625 20.53125 47.234375 19.738281 44.945312 C 19.433594 44.058594 19.164062 44.320312 22.714844 42.082031 C 24.4375 40.992188 26.613281 39.621094 27.527344 39.023438 C 28.453125 38.429688 29.253906 37.933594 29.308594 37.933594 C 29.375 37.925781 29.5 38.085938 29.617188 38.304688 Z M 41.566406 42.800781 C 43.820312 46.574219 46.257812 50.875 46.257812 51.078125 C 46.257812 51.375 44.789062 52.464844 43.601562 53.046875 C 42.183594 53.738281 40.816406 54.054688 39.273438 54.054688 C 38.53125 54.054688 37.210938 53.902344 37.113281 53.808594 C 37.09375 53.792969 37.070312 52.902344 37.054688 51.824219 C 37.042969 50.757812 36.976562 48.703125 36.910156 47.261719 C 36.789062 44.558594 36.789062 42.054688 36.910156 41.929688 C 36.953125 41.894531 37.3125 41.820312 37.710938 41.777344 C 38.554688 41.675781 39.390625 41.421875 39.855469 41.125 C 40.039062 41.007812 40.242188 40.914062 40.308594 40.914062 C 40.394531 40.90625 40.773438 41.464844 41.566406 42.800781 Z M 33.261719 41.226562 C 34.007812 41.589844 34.613281 41.726562 35.527344 41.75 C 35.972656 41.761719 36.34375 41.777344 36.367188 41.777344 C 36.386719 41.777344 36.410156 42.75 36.410156 43.933594 C 36.417969 45.125 36.472656 47.199219 36.539062 48.535156 C 36.605469 49.871094 36.65625 51.542969 36.65625 52.246094 C 36.65625 53.367188 36.640625 53.554688 36.53125 53.6875 C 36.445312 53.789062 36.160156 53.902344 35.675781 54.035156 C 35.019531 54.207031 34.816406 54.230469 33.675781 54.230469 C 32.574219 54.230469 32.308594 54.207031 31.710938 54.0625 C 30.417969 53.742188 29.332031 53.242188 28.363281 52.523438 C 27.660156 51.992188 27.027344 51.332031 27.085938 51.171875 C 27.164062 50.976562 30.421875 44.835938 31.515625 42.84375 C 32.109375 41.753906 32.574219 40.976562 32.632812 40.976562 C 32.691406 40.976562 32.976562 41.085938 33.261719 41.226562 Z M 53.90625 61.734375 C 53.964844 61.808594 54.335938 62.441406 54.730469 63.136719 C 55.703125 64.859375 56.890625 66.851562 59.238281 70.695312 C 61.972656 75.164062 64.367188 79.269531 64.367188 79.480469 C 64.367188 79.59375 63.910156 79.6875 62.65625 79.847656 C 60.175781 80.167969 59.800781 80.402344 58.621094 82.355469 C 57.980469 83.425781 57.441406 84.171875 57.277344 84.238281 C 57.144531 84.289062 57.230469 84.433594 55.785156 81.773438 C 55.136719 80.574219 53.523438 77.664062 52.199219 75.308594 C 48.992188 69.582031 47.128906 66.183594 47.128906 66.03125 C 47.128906 65.949219 47.441406 65.746094 48.113281 65.398438 C 49.957031 64.429688 51.246094 63.539062 52.277344 62.492188 C 52.789062 61.984375 52.957031 61.859375 53.296875 61.75 C 53.8125 61.589844 53.777344 61.589844 53.90625 61.734375 Z M 20.589844 62.207031 C 20.726562 62.25 21.078125 62.511719 21.367188 62.789062 C 22.460938 63.8125 23.492188 64.453125 25.710938 65.464844 C 26.671875 65.898438 27.238281 66.203125 27.238281 66.269531 C 27.238281 66.453125 18.015625 84.730469 17.898438 84.773438 C 17.761719 84.828125 17.347656 84.367188 16.667969 83.429688 C 15.820312 82.238281 15.1875 81.761719 14.191406 81.554688 C 13.8125 81.476562 11.773438 81.300781 11.191406 81.300781 C 11.136719 81.300781 11.027344 81.257812 10.953125 81.207031 C 10.828125 81.121094 10.878906 80.988281 11.679688 79.261719 C 12.152344 78.242188 13.898438 74.699219 15.550781 71.382812 C 17.207031 68.0625 18.917969 64.628906 19.355469 63.734375 C 19.828125 62.753906 20.175781 62.121094 20.242188 62.121094 C 20.300781 62.121094 20.453125 62.15625 20.589844 62.207031 Z M 20.589844 62.207031 "/>
</g>
</svg>
